<svg xmlns="http://www.w3.org/2000/svg" xmlns:xlink="http://www.w3.org/1999/xlink" width="1080" zoomAndPan="magnify" viewBox="0 0 810 809.999993" height="1080" preserveAspectRatio="xMidYMid meet" version="1.0"><defs><clipPath id="ec69f12845"><path d="M 82.855469 0 L 720 0 L 720 810 L 82.855469 810 Z M 82.855469 0 " clip-rule="nonzero"/></clipPath></defs><g clip-path="url(#ec69f12845)"><path fill="#660000" d="M 656.714844 394.894531 L 649.695312 395.664062 C 649.695312 275.324219 649.617188 109.695312 649.617188 109.695312 L 587.90625 47.984375 L 569.234375 39.960938 C 520.558594 19.132812 468.796875 6.171875 415.183594 1.464844 L 398.980469 0 L 388.644531 12.574219 C 341.585938 69.890625 293.992188 135.460938 248.011719 198.796875 C 191.699219 276.480469 138.46875 349.84375 91.027344 401.605469 L 82.925781 410.476562 L 82.925781 564.378906 L 144.640625 626.089844 L 164.699219 633.574219 C 234.050781 659.496094 309.417969 675.769531 381.625 681.09375 L 381.625 748.515625 C 381.625 748.515625 443.339844 810.230469 443.339844 810.230469 L 477.203125 806.914062 C 528.117188 801.898438 579.957031 788.246094 631.183594 766.335938 L 649.925781 758.3125 L 649.925781 649.773438 C 666.128906 644.914062 682.328125 639.4375 698.296875 633.574219 L 718.507812 626.167969 L 718.507812 456.609375 C 727.378906 455.605469 656.792969 394.894531 656.792969 394.894531 Z M 656.714844 394.894531 " fill-opacity="1" fill-rule="nonzero"/></g><path fill="#f7f5f0" d="M 412.480469 589.140625 C 308.957031 596.46875 201.726562 575.792969 113.785156 542.929688 L 113.785156 422.433594 C 201.957031 326.160156 308.878906 158.21875 412.480469 32.167969 C 462.085938 36.566406 511.070312 48.601562 557.046875 68.347656 C 557.046875 191.160156 557.046875 313.816406 557.203125 436.242188 C 581.039062 434.082031 604.027344 431.769531 625.859375 429.378906 C 625.859375 467.253906 625.859375 505.132812 625.859375 543.085938 C 604.105469 551.109375 581.117188 558.515625 557.277344 564.996094 C 557.277344 602.175781 557.277344 639.28125 557.277344 676.464844 C 511.222656 696.214844 462.085938 709.867188 412.480469 714.652344 C 412.480469 672.839844 412.480469 631.105469 412.480469 589.292969 Z M 412.480469 444.574219 C 412.480469 374.21875 412.480469 303.789062 412.480469 233.433594 C 357.632812 301.9375 302.011719 377.152344 248.707031 441.257812 C 302.089844 444.574219 357.710938 445.886719 412.480469 444.574219 Z M 412.480469 444.574219 " fill-opacity="1" fill-rule="nonzero"/></svg>