<svg xmlns="http://www.w3.org/2000/svg" xmlns:xlink="http://www.w3.org/1999/xlink" width="1080" zoomAndPan="magnify" viewBox="0 0 810 809.999993" height="1080" preserveAspectRatio="xMidYMid meet" version="1.0"><defs><clipPath id="8aa49975b0"><path d="M 95.679688 0 L 714.429688 0 L 714.429688 810 L 95.679688 810 Z M 95.679688 0 " clip-rule="nonzero"/></clipPath></defs><g clip-path="url(#8aa49975b0)"><path fill="#660000" d="M 668.265625 419.734375 L 668.339844 419.734375 L 647.976562 400.140625 C 645.972656 397.828125 643.890625 395.433594 641.730469 393.199219 C 649.210938 386.023438 655.769531 378.621094 661.320312 370.828125 C 678.367188 346.992188 686.621094 320.691406 686.621094 290.144531 C 686.46875 241.703125 667.648438 194.03125 630.542969 148.214844 C 625.992188 142.738281 620.4375 136.566406 613.882812 130.242188 C 613.882812 130.242188 613.882812 130.242188 613.960938 130.242188 C 614.269531 130.550781 584.726562 101.007812 584.726562 101.007812 C 584.726562 101.007812 558.730469 75.164062 558.34375 74.78125 C 527.796875 42.613281 469.636719 0.0351562 376.226562 0.0351562 L 373.757812 0.0351562 C 284.203125 1.191406 225.734375 44.773438 192.332031 81.257812 C 154.769531 122.679688 128.851562 172.28125 115.351562 228.589844 L 104.859375 272.324219 L 166.570312 334.035156 L 211.152344 328.09375 C 229.511719 325.625 249.644531 324.394531 270.933594 324.394531 C 280.113281 324.394531 289.757812 324.699219 299.628906 325.164062 L 290.527344 460.847656 L 301.710938 472.03125 L 294.382812 472.496094 C 276.179688 473.652344 257.746094 474.269531 239.695312 474.269531 C 205.523438 474.269531 172.507812 472.261719 141.421875 468.175781 L 95.679688 462.234375 L 107.636719 506.742188 C 118.128906 545.773438 133.476562 581.796875 153.226562 613.808594 C 163.5625 630.546875 175.132812 645.898438 187.78125 660.011719 L 187.703125 660.011719 L 188.707031 661.015625 C 194.570312 667.496094 200.664062 673.664062 206.988281 679.605469 L 231.980469 704.984375 C 231.980469 704.984375 232.367188 705.367188 232.597656 705.601562 C 232.597656 705.601562 262.757812 735.761719 262.757812 735.761719 C 263.066406 735.992188 263.296875 736.300781 263.53125 736.53125 L 263.914062 736.917969 C 274.636719 747.332031 285.976562 756.894531 298.007812 765.457031 C 326.78125 785.898438 375.453125 810.195312 443.71875 810.195312 L 447.652344 810.195312 C 505.507812 809.269531 559.578125 788.984375 604.242188 751.417969 C 639.335938 721.644531 667.105469 685.160156 686.851562 642.734375 C 705.289062 602.855469 713.929688 567.757812 714.003906 532.273438 C 714.003906 502.578125 707.910156 477.277344 695.492188 454.90625 C 688.242188 441.871094 679.0625 430.144531 668.261719 419.578125 Z M 388.414062 559.582031 L 383.554688 532.507812 L 368.820312 517.773438 L 394.429688 510.445312 C 410.9375 505.738281 422.429688 503.347656 430.453125 502.191406 C 430.453125 502.269531 430.453125 502.421875 430.453125 502.5 C 430.453125 525.179688 425.207031 542.84375 414.410156 556.496094 C 406.15625 566.910156 398.054688 571.382812 391.113281 573.234375 C 390.1875 568.992188 389.183594 564.441406 388.335938 559.503906 Z M 388.414062 559.582031 " fill-opacity="1" fill-rule="nonzero"/></g><path fill="#f7f5f0" d="M 296.3125 237.304688 C 243.164062 231.058594 191.714844 229.59375 145.355469 235.761719 C 156.925781 187.554688 179.453125 141.503906 215.242188 102.007812 C 250.878906 63.054688 303.871094 31.816406 374.21875 30.890625 C 455.058594 30.273438 511.832031 65.910156 545.078125 106.175781 C 578.554688 147.363281 593.980469 187.785156 594.136719 228.511719 C 594.136719 252.65625 587.734375 272.710938 574.542969 291.148438 C 561.351562 309.503906 541.144531 326.242188 512.910156 341.980469 C 535.742188 348.613281 552.714844 355.785156 564.207031 363.421875 C 582.949219 375.765625 596.988281 390.808594 606.863281 408.472656 C 616.738281 426.136719 621.441406 446.34375 621.441406 470.796875 C 621.441406 501.421875 613.652344 532.738281 597.222656 568.21875 C 580.714844 603.546875 556.339844 637.71875 522.628906 666.335938 C 489 694.648438 443.101562 716.863281 385.558594 717.789062 C 329.402344 718.558594 285.4375 700.894531 254.195312 678.757812 C 222.878906 656.386719 198.195312 628 179.453125 597.6875 C 160.628906 567.21875 146.898438 534.125 137.410156 498.796875 C 185.621094 505.046875 240.082031 506.898438 296.3125 503.347656 C 302.945312 540.144531 313.28125 566.601562 327.320312 581.875 C 341.4375 597.222656 359.410156 605.476562 381.316406 605.398438 C 404.304688 605.398438 423.433594 594.910156 438.628906 575.703125 C 453.824219 556.417969 461.308594 532.042969 461.308594 502.578125 C 461.308594 472.496094 454.054688 449.660156 439.476562 433.308594 C 424.898438 417.035156 404.921875 408.78125 379.621094 408.78125 C 366.121094 408.78125 347.609375 412.40625 324.160156 419.117188 C 327.089844 375.6875 330.019531 332.105469 332.953125 288.371094 C 342.441406 289.679688 349.84375 290.296875 355.167969 290.222656 C 377.613281 289.988281 396.359375 282.351562 411.324219 267.3125 C 426.289062 252.269531 433.769531 234.605469 433.769531 213.625 C 433.769531 193.648438 428.214844 177.214844 417.03125 164.566406 C 405.847656 151.992188 390.417969 145.28125 370.75 145.589844 C 350.539062 145.820312 334.1875 153.457031 321.613281 167.421875 C 309.117188 181.382812 300.632812 204.832031 296.234375 237.304688 Z M 296.3125 237.304688 " fill-opacity="1" fill-rule="nonzero"/></svg>