<svg xmlns="http://www.w3.org/2000/svg" xmlns:xlink="http://www.w3.org/1999/xlink" width="1080" zoomAndPan="magnify" viewBox="0 0 810 809.999993" height="1080" preserveAspectRatio="xMidYMid meet" version="1.0"><defs><clipPath id="20f3fbad6e"><path d="M 94.667969 0 L 715.667969 0 L 715.667969 810 L 94.667969 810 Z M 94.667969 0 " clip-rule="nonzero"/></clipPath></defs><g clip-path="url(#20f3fbad6e)"><path fill="#660000" d="M 715.277344 724.710938 L 715.277344 544.15625 L 652.910156 481.789062 L 625.3125 490.753906 C 648.078125 468.070312 665.460938 447.566406 677.625 428.933594 C 700.777344 392.917969 711.613281 358.300781 711.691406 319.867188 C 711.691406 284.164062 702.179688 248.535156 682.769531 211.035156 C 667.878906 182.503906 649.402344 157.554688 627.808594 136.351562 C 627.808594 136.351562 627.964844 136.351562 627.964844 136.351562 C 629.054688 136.507812 599.664062 107.972656 599.664062 107.972656 L 573.546875 82.011719 C 562.476562 70.242188 550.550781 59.5625 537.6875 49.972656 C 507.359375 27.675781 455.28125 0.859375 379.351562 0 L 376.933594 0 C 304.117188 0 254.148438 25.804688 224.988281 47.476562 C 191.390625 72.582031 164.257812 104.777344 144.300781 143.054688 C 126.371094 177.667969 114.519531 218.054688 108.050781 266.699219 L 102.515625 307.941406 L 164.882812 370.308594 L 205.96875 364.070312 C 239.414062 359.003906 277.847656 356.429688 320.023438 356.429688 C 322.519531 356.429688 325.167969 356.429688 327.742188 356.429688 C 325.011719 358.613281 322.363281 360.796875 319.476562 363.136719 C 237.777344 428.933594 181.097656 477.425781 150.695312 516.09375 C 119.199219 556.941406 102.59375 595.609375 96.980469 641.605469 L 94.5625 660.941406 L 156.929688 723.308594 L 173.304688 733.910156 C 250.328125 783.882812 341.539062 810.3125 437.117188 810.3125 C 532.695312 810.3125 623.910156 783.882812 700.933594 733.910156 L 715.121094 724.710938 Z M 415.289062 266.464844 C 416.769531 264.828125 418.253906 263.425781 419.8125 262.101562 C 417.472656 267.089844 414.433594 272.234375 410.691406 277.691406 C 409.363281 279.640625 407.492188 282.136719 404.921875 285.175781 C 408.742188 275.121094 412.5625 269.507812 415.210938 266.464844 Z M 415.289062 266.464844 " fill-opacity="1" fill-rule="nonzero"/></g><path fill="#f7f5f0" d="M 621.726562 645.425781 C 475.085938 740.617188 274.652344 740.617188 128.085938 645.425781 C 133.074219 604.578125 148.199219 570.585938 175.5625 535.191406 C 202.773438 500.578125 256.019531 454.425781 339.199219 387.460938 C 389.953125 346.765625 422.460938 315.734375 436.417969 295.46875 C 450.449219 274.964844 457.464844 255.785156 457.464844 237.230469 C 457.464844 217.117188 450.527344 199.34375 436.652344 183.828125 C 422.695312 168.394531 405.15625 159.972656 383.871094 159.738281 C 361.730469 159.503906 343.644531 167.769531 329.691406 183.4375 C 315.734375 199.1875 306.378906 226.082031 301.625 263.660156 C 244.480469 261.554688 188.972656 263.269531 139 270.832031 C 144.925781 226.863281 155.683594 188.972656 172.054688 157.402344 C 188.425781 125.984375 211.972656 96.203125 243.699219 72.503906 C 275.351562 48.957031 320.570312 30.792969 379.117188 31.261719 C 440.238281 31.886719 486.855469 51.453125 519.054688 75.230469 C 551.328125 99.242188 575.496094 130.269531 592.726562 163.167969 C 609.875 196.300781 618.0625 226.941406 618.0625 257.578125 C 618.0625 290.320312 608.707031 319.011719 588.984375 349.726562 C 569.257812 379.976562 532.460938 417.863281 474.929688 465.574219 C 440.78125 493.25 417.394531 512.585938 405.621094 523.265625 C 393.851562 534.023438 380.050781 548.054688 364.148438 564.660156 C 454.191406 566.296875 545.480469 549.460938 621.570312 524.667969 C 621.570312 564.894531 621.570312 605.121094 621.570312 645.347656 Z M 621.726562 645.425781 " fill-opacity="1" fill-rule="nonzero"/></svg>