<svg xmlns="http://www.w3.org/2000/svg" xmlns:xlink="http://www.w3.org/1999/xlink" width="1080" zoomAndPan="magnify" viewBox="0 0 810 809.999993" height="1080" preserveAspectRatio="xMidYMid meet" version="1.0"><defs><clipPath id="6a0d17ec2e"><path d="M 159.46875 0 L 650.71875 0 L 650.71875 810 L 159.46875 810 Z M 159.46875 0 " clip-rule="nonzero"/></clipPath></defs><g clip-path="url(#6a0d17ec2e)"><path fill="#660000" d="M 408.707031 810.246094 L 441.914062 810 C 506.601562 809.503906 575.074219 789.152344 634.570312 752.730469 L 650.308594 743.089844 L 650.308594 133.820312 L 584.386719 67.898438 L 569.472656 58.175781 C 523.410156 28.015625 469.273438 8.734375 412.992188 2.554688 L 390.003906 0 L 379.785156 20.765625 C 362.8125 55.457031 338.75 86.6875 306.285156 116.433594 C 275.21875 145.027344 230.476562 174.03125 175.183594 208.804688 L 159.773438 218.527344 L 159.773438 410.6875 L 225.695312 476.605469 L 269.039062 462.269531 C 295.324219 453.535156 320.292969 443.726562 342.703125 433.347656 L 342.703125 744.328125 L 408.625 810.246094 Z M 408.707031 810.246094 " fill-opacity="1" fill-rule="nonzero"/></g><path fill="#f7f5f0" d="M 551.507812 85.695312 C 551.507812 276.703125 551.507812 467.707031 551.507812 658.628906 C 499.429688 690.519531 437.382812 710.542969 375.746094 711.035156 C 375.746094 562.960938 375.746094 414.96875 375.746094 266.894531 C 345.753906 289.886719 316.75 309.496094 289.554688 324.246094 C 262.445312 338.996094 228.746094 353.167969 192.816406 365.035156 C 192.816406 322.269531 192.816406 279.503906 192.816406 236.65625 C 246.132812 203.035156 294.746094 171.886719 328.613281 140.574219 C 362.894531 109.261719 390.003906 74.65625 409.367188 35.183594 C 459.550781 40.707031 508.578125 57.515625 551.425781 85.613281 Z M 551.507812 85.695312 " fill-opacity="1" fill-rule="nonzero"/></svg>