<svg xmlns="http://www.w3.org/2000/svg" xmlns:xlink="http://www.w3.org/1999/xlink" width="1080" zoomAndPan="magnify" viewBox="0 0 810 809.999993" height="1080" preserveAspectRatio="xMidYMid meet" version="1.0"><defs><clipPath id="3b2ab1da12"><path d="M 91.125 0 L 718.875 0 L 718.875 810 L 91.125 810 Z M 91.125 0 " clip-rule="nonzero"/></clipPath></defs><g clip-path="url(#3b2ab1da12)"><path fill="#660000" d="M 133.339844 584.757812 C 146.1875 609.601562 162.855469 633.667969 182.875 656.410156 C 189.105469 663.5 195.644531 670.121094 202.421875 676.503906 C 202.421875 676.503906 225.242188 699.558594 225.242188 699.558594 L 249.777344 723.78125 C 249.777344 723.78125 249.777344 723.78125 249.777344 723.703125 C 272.050781 747.769531 297.519531 767.398438 325.792969 782.039062 C 361.773438 800.652344 401.261719 810 443.085938 810 L 445.1875 810 C 503.523438 809.53125 558.511719 788.425781 604.152344 748.859375 C 640.523438 717.160156 669.496094 677.597656 690.371094 631.019531 C 709.761719 587.40625 718.796875 549.007812 718.875 509.988281 C 718.71875 453.679688 699.949219 406.636719 659.527344 361.929688 C 657.035156 359.203125 654.386719 356.476562 651.816406 353.90625 L 651.117188 353.207031 C 651.117188 353.207031 651.117188 353.207031 651.039062 353.128906 L 621.753906 323.921875 L 620.816406 322.988281 C 619.496094 321.664062 618.171875 320.417969 616.847656 319.09375 L 599.710938 302.425781 C 598.933594 301.570312 598.152344 300.632812 597.296875 299.699219 C 593.402344 295.417969 589.351562 291.367188 585.226562 287.472656 C 608.667969 291.988281 631.332031 297.597656 652.671875 304.375 L 693.25 317.222656 L 693.25 131.625 C 693.25 131.625 634.835938 70.40625 630.941406 69.316406 L 614.976562 60.4375 C 544.101562 20.875 462.710938 0 379.53125 0 C 314.5 0 249.074219 13.085938 190.273438 37.851562 L 174.070312 44.628906 L 171.5 61.996094 C 153.511719 184.585938 137.3125 290.121094 122.125 384.671875 L 117.214844 415.203125 L 173.058594 471.046875 C 161.300781 469.800781 149.617188 468.398438 138.246094 466.605469 L 91.125 459.441406 L 103.429688 505.472656 C 111.296875 534.910156 121.34375 561.546875 133.339844 584.679688 Z M 389.113281 564.273438 L 385.21875 536.390625 L 358.8125 509.988281 L 365.277344 511.15625 L 376.960938 497.449219 C 391.136719 480.859375 400.5625 473.851562 406.402344 470.65625 C 414.890625 465.90625 423.226562 463.023438 431.871094 462.011719 C 432.414062 468.085938 432.726562 474.550781 432.726562 481.484375 C 432.726562 512.714844 426.964844 536.3125 415.59375 551.578125 C 406.480469 563.730469 397.601562 568.402344 390.125 570.191406 C 389.8125 568.246094 389.421875 566.300781 389.113281 564.195312 Z M 389.113281 564.273438 " fill-opacity="1" fill-rule="nonzero"/></g><path fill="#f7f5f0" d="M 202.34375 66.511719 C 329.140625 13.164062 478.914062 20.171875 599.710938 87.464844 C 599.710938 129.054688 599.710938 170.644531 599.710938 212.234375 C 517.933594 186.378906 422.757812 176.5625 330.464844 181.9375 C 325.558594 215.664062 320.574219 249.308594 315.667969 282.722656 C 334.75 272.363281 353.828125 264.574219 372.679688 259.589844 C 391.527344 254.605469 410.140625 252.425781 428.519531 253.125 C 490.671875 255.304688 539.117188 282.175781 574.320312 320.652344 C 609.523438 359.59375 625.414062 399.238281 625.492188 447.757812 C 625.492188 482.105469 617.234375 516.6875 599.710938 556.019531 C 582.1875 595.117188 556.5625 632.5 521.515625 663.03125 C 486.546875 693.328125 440.046875 716.070312 382.726562 716.539062 C 341.601562 716.851562 306.554688 706.804688 277.890625 692.003906 C 249.230469 677.128906 225.398438 657.347656 206.316406 635.773438 C 187.234375 614.121094 172.28125 592.078125 161.066406 570.425781 C 149.851562 548.773438 140.738281 524.320312 133.570312 497.527344 C 182.875 505.082031 238.5625 508.429688 296.039062 506.328125 C 300.246094 536.234375 309.980469 559.914062 325.480469 576.8125 C 340.980469 593.636719 359.515625 602.671875 381.089844 602.59375 C 405.15625 602.59375 425.015625 591.222656 440.671875 570.347656 C 456.25 549.398438 463.957031 519.878906 463.957031 481.636719 C 463.957031 442.460938 456.171875 414.113281 440.4375 395.808594 C 424.703125 377.507812 403.597656 368.160156 377.273438 368.160156 C 360.527344 368.160156 344.40625 372.601562 328.90625 381.324219 C 317.378906 387.632812 304.683594 399.082031 291.054688 415.046875 C 242.765625 406.167969 195.878906 396.820312 152.964844 389.65625 C 168.933594 290.585938 185.519531 181.9375 202.421875 66.511719 Z M 202.34375 66.511719 " fill-opacity="1" fill-rule="nonzero"/></svg>