<svg xmlns="http://www.w3.org/2000/svg" xmlns:xlink="http://www.w3.org/1999/xlink" width="1080" zoomAndPan="magnify" viewBox="0 0 810 809.999993" height="1080" preserveAspectRatio="xMidYMid meet" version="1.0"><path fill="#660000" d="M 126.84375 487.039062 C 126.839844 487.039062 126.839844 487.039062 126.832031 487.039062 C 111.046875 487.890625 96.304688 481.460938 86.066406 470.558594 L 17.59375 470.558594 C 8.855469 470.558594 1.769531 477.644531 1.769531 486.382812 L 1.769531 657.808594 C 1.769531 666.550781 8.855469 673.632812 17.59375 673.632812 L 20 673.632812 L 20 685.972656 L 62.070312 685.972656 L 62.070312 673.632812 L 144.535156 673.632812 L 144.535156 685.972656 L 186.609375 685.972656 L 186.609375 673.632812 L 189.019531 673.632812 C 197.761719 673.632812 204.84375 666.550781 204.84375 657.808594 L 204.84375 486.382812 C 204.84375 483.199219 203.882812 480.25 202.265625 477.765625 C 179.800781 479.039062 156.765625 481.871094 133.753906 486.207031 C 131.472656 486.636719 129.148438 486.914062 126.84375 487.039062 Z M 126.84375 487.039062 " fill-opacity="1" fill-rule="nonzero"/><path fill="#660000" d="M 520.621094 532.691406 L 519.910156 533.582031 L 519 534.285156 C 515.679688 536.898438 511.996094 539.035156 508.054688 540.6875 C 507.117188 542.332031 506.15625 543.964844 505.230469 545.613281 L 502.050781 543.652344 C 496.21875 546.257812 489.925781 547.816406 483.542969 548.164062 C 482.578125 548.21875 481.625 548.238281 480.65625 548.242188 C 469.042969 548.222656 458.042969 544.449219 448.878906 537.363281 C 448.34375 536.949219 411.5625 509.539062 345.429688 491.785156 L 277.648438 601.5625 L 309.148438 621.015625 L 333.90625 580.917969 L 451.09375 653.273438 C 444.628906 667.785156 438.375 682.382812 432.453125 697.140625 L 464.453125 716.902344 C 509.984375 601.757812 572.449219 494.199219 649.6875 397.753906 C 600.699219 437.308594 570.863281 470.40625 520.621094 532.691406 Z M 459.53125 634.746094 L 344.519531 563.730469 L 377.527344 510.273438 L 487.53125 578.199219 C 477.738281 596.800781 468.40625 615.65625 459.53125 634.746094 Z M 459.53125 634.746094 " fill-opacity="1" fill-rule="nonzero"/><path fill="#660000" d="M 114.417969 383.667969 C 142.367188 378.402344 170.476562 374.972656 197.976562 373.488281 C 209.027344 372.886719 220.175781 372.589844 231.121094 372.605469 C 298.707031 372.703125 363.015625 384.296875 422.332031 407.0625 C 422.976562 406.601562 423.585938 406.140625 424.226562 405.675781 C 370.40625 377.40625 291.34375 349.886719 189.546875 349.917969 C 164.964844 349.917969 139.082031 351.519531 111.960938 355.0625 C 88.925781 358.070312 72.679688 379.191406 75.695312 402.226562 C 76.085938 405.261719 76.816406 408.167969 77.804688 410.9375 C 78.765625 409.085938 79.808594 407.269531 81 405.523438 C 88.851562 394.015625 100.71875 386.257812 114.417969 383.667969 Z M 114.417969 383.667969 " fill-opacity="1" fill-rule="nonzero"/><path fill="#660000" d="M 731.441406 192.613281 C 732.027344 207.007812 728.863281 221.730469 721.484375 235.277344 C 719.359375 239.171875 716.921875 242.816406 714.261719 246.261719 C 726.8125 255.40625 736.097656 263.441406 742.40625 270.085938 C 750.914062 278.910156 753.695312 285.121094 754.042969 286.824219 C 753.410156 287.539062 751.878906 288.960938 749.269531 290.542969 C 742.917969 294.558594 730.75 298.863281 717.550781 301.699219 C 702.359375 305.09375 685.925781 306.933594 673.492188 307.914062 C 671.320312 305.707031 669.113281 303.960938 667.011719 302.957031 C 632.144531 285.988281 597.285156 269.027344 562.433594 252.058594 C 560.828125 249.023438 558.875 245.214844 556.753906 240.878906 C 551.171875 229.449219 544.527344 214.183594 540.441406 200.351562 C 537.683594 191.179688 536.207031 182.597656 536.269531 177.378906 C 536.265625 176.207031 536.335938 175.214844 536.429688 174.460938 C 536.929688 174.414062 537.539062 174.386719 538.269531 174.386719 C 543.332031 174.265625 553.429688 176.117188 567.902344 181.40625 C 569.410156 172.855469 572.285156 164.40625 576.664062 156.375 C 581.339844 147.792969 587.417969 140.289062 594.503906 134.023438 C 572.808594 125.253906 554.988281 120.714844 538.355469 120.535156 C 530.359375 120.519531 522.460938 121.664062 514.929688 124.59375 C 507.417969 127.476562 500.417969 132.347656 495.285156 138.40625 C 484.859375 150.820312 482.46875 165.105469 482.417969 177.292969 C 482.457031 190.679688 485.210938 203.367188 488.816406 215.65625 C 492.457031 227.910156 497.097656 239.65625 501.664062 250.058594 C 503.648438 254.578125 505.625 258.816406 507.515625 262.734375 C 500.507812 327.765625 492.511719 370.992188 423.703125 418.445312 C 377.273438 400.03125 312.09375 382.824219 231.105469 382.707031 C 195.703125 382.652344 157.320312 385.851562 116.292969 393.589844 C 93.457031 397.898438 78.433594 419.902344 82.738281 442.738281 C 87.039062 465.566406 109.042969 480.589844 131.878906 476.285156 C 167.695312 469.535156 200.75 466.808594 230.972656 466.851562 C 372.390625 466.964844 454.03125 528.578125 455.027344 529.351562 C 462.660156 535.261719 471.703125 538.132812 480.675781 538.144531 C 488.34375 538.15625 495.960938 536.054688 502.625 532.003906 C 506.128906 530.710938 509.570312 528.859375 512.765625 526.351562 C 573.136719 451.5 604.550781 417.617188 680.320312 361.390625 C 682.964844 361.167969 685.734375 360.910156 688.636719 360.617188 C 708.289062 358.546875 732.894531 354.9375 755.46875 346.796875 C 770.433594 341.15625 785.308594 334.023438 796.921875 319.421875 C 803.449219 311.136719 808.097656 299.546875 808 287.503906 C 807.855469 269.25 799.296875 253.464844 786.515625 238.574219 C 773.839844 223.953125 756.0625 209.15625 731.441406 192.613281 Z M 731.441406 192.613281 " fill-opacity="1" fill-rule="nonzero"/><path fill="#660000" d="M 685.335938 129.335938 C 686.421875 129.929688 687.496094 130.546875 688.554688 131.191406 C 689.613281 131.839844 690.652344 132.511719 691.679688 133.207031 C 692.703125 133.902344 693.710938 134.625 694.699219 135.371094 C 695.691406 136.117188 696.660156 136.886719 697.613281 137.683594 C 698.5625 138.476562 699.496094 139.292969 700.40625 140.132812 C 701.320312 140.972656 702.210938 141.835938 703.078125 142.71875 C 703.949219 143.601562 704.792969 144.503906 705.621094 145.429688 C 706.445312 146.355469 707.246094 147.300781 708.023438 148.265625 C 708.804688 149.230469 709.558594 150.210938 710.289062 151.214844 C 711.019531 152.214844 711.722656 153.234375 712.402344 154.269531 C 713.085938 155.304688 713.738281 156.359375 714.367188 157.425781 C 714.996094 158.492188 715.597656 159.578125 716.171875 160.675781 C 716.75 161.773438 717.296875 162.882812 717.816406 164.007812 C 718.339844 165.132812 718.832031 166.269531 719.296875 167.417969 C 719.761719 168.566406 720.199219 169.726562 720.605469 170.898438 C 721.015625 172.066406 721.394531 173.246094 721.742188 174.4375 C 722.09375 175.625 722.414062 176.820312 722.707031 178.027344 C 722.996094 179.230469 723.257812 180.441406 723.492188 181.660156 C 723.722656 182.878906 723.925781 184.101562 724.097656 185.328125 C 724.269531 186.554688 724.410156 187.785156 724.523438 189.019531 C 724.632812 190.253906 724.714844 191.492188 724.765625 192.730469 C 724.816406 193.96875 724.835938 195.207031 724.828125 196.445312 C 724.816406 197.683594 724.777344 198.921875 724.707031 200.160156 C 724.636719 201.398438 724.535156 202.632812 724.402344 203.867188 C 724.269531 205.097656 724.109375 206.328125 723.917969 207.550781 C 723.726562 208.773438 723.503906 209.996094 723.253906 211.207031 C 723 212.421875 722.71875 213.628906 722.410156 214.828125 C 722.097656 216.027344 721.757812 217.21875 721.390625 218.402344 C 721.019531 219.585938 720.621094 220.757812 720.195312 221.921875 C 719.769531 223.085938 719.3125 224.238281 718.828125 225.378906 C 718.34375 226.519531 717.835938 227.648438 717.296875 228.765625 C 716.757812 229.882812 716.191406 230.984375 715.597656 232.070312 C 715.003906 233.160156 714.386719 234.234375 713.738281 235.292969 C 713.09375 236.347656 712.421875 237.390625 711.726562 238.414062 C 711.027344 239.441406 710.308594 240.449219 709.5625 241.4375 C 708.8125 242.425781 708.042969 243.398438 707.25 244.347656 C 706.457031 245.300781 705.640625 246.234375 704.800781 247.144531 C 703.960938 248.054688 703.097656 248.945312 702.214844 249.816406 C 701.332031 250.683594 700.425781 251.53125 699.503906 252.355469 C 698.578125 253.183594 697.632812 253.984375 696.667969 254.761719 C 695.703125 255.539062 694.722656 256.292969 693.71875 257.023438 C 692.71875 257.753906 691.699219 258.460938 690.664062 259.140625 C 689.628906 259.820312 688.574219 260.476562 687.507812 261.105469 C 686.4375 261.734375 685.355469 262.335938 684.257812 262.910156 C 683.160156 263.484375 682.050781 264.035156 680.925781 264.554688 C 679.800781 265.074219 678.664062 265.570312 677.515625 266.035156 C 676.363281 266.5 675.207031 266.933594 674.035156 267.34375 C 672.863281 267.75 671.683594 268.128906 670.496094 268.480469 C 669.308594 268.832031 668.109375 269.152344 666.90625 269.441406 C 665.703125 269.734375 664.492188 269.996094 663.273438 270.226562 C 662.054688 270.460938 660.832031 270.664062 659.605469 270.835938 C 658.378906 271.007812 657.148438 271.148438 655.914062 271.257812 C 654.679688 271.371094 653.441406 271.453125 652.203125 271.503906 C 650.964844 271.554688 649.726562 271.574219 648.488281 271.5625 C 647.246094 271.554688 646.007812 271.515625 644.773438 271.441406 C 643.535156 271.371094 642.300781 271.269531 641.066406 271.140625 C 639.835938 271.007812 638.605469 270.847656 637.382812 270.65625 C 636.15625 270.464844 634.9375 270.242188 633.726562 269.988281 C 632.511719 269.738281 631.304688 269.457031 630.105469 269.148438 C 628.90625 268.835938 627.714844 268.496094 626.53125 268.125 C 625.347656 267.757812 624.175781 267.359375 623.011719 266.933594 C 621.847656 266.503906 620.695312 266.050781 619.554688 265.566406 C 618.410156 265.082031 617.285156 264.570312 616.167969 264.03125 C 615.050781 263.492188 613.949219 262.925781 612.859375 262.335938 C 611.773438 261.742188 610.699219 261.121094 609.640625 260.476562 C 608.582031 259.832031 607.542969 259.160156 606.515625 258.460938 C 605.492188 257.765625 604.484375 257.042969 603.496094 256.296875 C 602.503906 255.550781 601.535156 254.78125 600.582031 253.988281 C 599.632812 253.191406 598.699219 252.375 597.789062 251.535156 C 596.875 250.695312 595.988281 249.835938 595.117188 248.953125 C 594.246094 248.070312 593.402344 247.164062 592.574219 246.238281 C 591.75 245.3125 590.949219 244.371094 590.171875 243.40625 C 589.390625 242.441406 588.636719 241.457031 587.90625 240.457031 C 587.175781 239.453125 586.472656 238.4375 585.792969 237.398438 C 585.113281 236.363281 584.457031 235.3125 583.828125 234.242188 C 583.199219 233.175781 582.597656 232.09375 582.023438 230.996094 C 581.445312 229.898438 580.898438 228.785156 580.378906 227.660156 C 579.855469 226.535156 579.363281 225.398438 578.898438 224.25 C 578.433594 223.101562 577.996094 221.941406 577.589844 220.773438 C 577.179688 219.601562 576.800781 218.421875 576.453125 217.234375 C 576.101562 216.042969 575.78125 214.847656 575.488281 213.644531 C 575.199219 212.4375 574.9375 211.226562 574.703125 210.011719 C 574.472656 208.792969 574.269531 207.570312 574.097656 206.34375 C 573.925781 205.113281 573.785156 203.882812 573.671875 202.648438 C 573.5625 201.414062 573.480469 200.179688 573.429688 198.941406 C 573.378906 197.703125 573.359375 196.464844 573.367188 195.222656 C 573.378906 193.984375 573.417969 192.746094 573.488281 191.507812 C 573.558594 190.273438 573.660156 189.035156 573.792969 187.804688 C 573.925781 186.570312 574.085938 185.34375 574.277344 184.117188 C 574.46875 182.894531 574.691406 181.675781 574.941406 180.460938 C 575.195312 179.25 575.476562 178.042969 575.785156 176.839844 C 576.097656 175.640625 576.4375 174.449219 576.804688 173.265625 C 577.175781 172.085938 577.574219 170.910156 578 169.746094 C 578.429688 168.582031 578.882812 167.429688 579.367188 166.289062 C 579.851562 165.148438 580.359375 164.019531 580.898438 162.902344 C 581.4375 161.789062 582.003906 160.6875 582.597656 159.597656 C 583.191406 158.507812 583.8125 157.4375 584.457031 156.378906 C 585.101562 155.320312 585.773438 154.277344 586.46875 153.253906 C 587.167969 152.230469 587.890625 151.222656 588.636719 150.230469 C 589.382812 149.242188 590.152344 148.273438 590.945312 147.320312 C 591.738281 146.367188 592.554688 145.4375 593.394531 144.527344 C 594.234375 143.613281 595.097656 142.722656 595.980469 141.855469 C 596.863281 140.984375 597.769531 140.136719 598.695312 139.3125 C 599.617188 138.488281 600.5625 137.6875 601.527344 136.90625 C 602.492188 136.128906 603.476562 135.375 604.476562 134.644531 C 605.476562 133.914062 606.496094 133.210938 607.53125 132.527344 C 608.570312 131.847656 609.621094 131.195312 610.6875 130.566406 C 611.757812 129.9375 612.839844 129.335938 613.9375 128.757812 C 615.035156 128.183594 616.148438 127.636719 617.269531 127.113281 C 618.394531 126.59375 619.53125 126.101562 620.679688 125.636719 C 621.832031 125.171875 622.988281 124.734375 624.160156 124.328125 C 625.332031 123.917969 626.511719 123.539062 627.699219 123.1875 C 628.886719 122.839844 630.085938 122.519531 631.289062 122.226562 C 632.492188 121.933594 633.707031 121.671875 634.921875 121.441406 C 636.140625 121.210938 637.363281 121.007812 638.589844 120.835938 C 639.816406 120.664062 641.046875 120.523438 642.28125 120.410156 C 643.515625 120.296875 644.753906 120.21875 645.992188 120.167969 C 647.230469 120.117188 648.46875 120.09375 649.707031 120.105469 C 650.949219 120.117188 652.1875 120.15625 653.421875 120.226562 C 654.660156 120.296875 655.894531 120.398438 657.128906 120.53125 C 658.359375 120.660156 659.589844 120.824219 660.8125 121.015625 C 662.039062 121.207031 663.257812 121.429688 664.472656 121.679688 C 665.683594 121.929688 666.890625 122.210938 668.089844 122.523438 C 669.289062 122.835938 670.480469 123.175781 671.664062 123.542969 C 672.847656 123.914062 674.023438 124.3125 675.183594 124.738281 C 676.347656 125.164062 677.5 125.621094 678.640625 126.101562 C 679.785156 126.585938 680.914062 127.097656 682.027344 127.636719 C 683.144531 128.175781 684.246094 128.742188 685.335938 129.335938 Z M 685.335938 129.335938 " fill-opacity="1" fill-rule="nonzero"/></svg>